<svg xmlns="http://www.w3.org/2000/svg" xmlns:xlink="http://www.w3.org/1999/xlink" width="73" height="73" viewBox="0 0 73 73">
  <defs>
    <filter id="Retângulo_8560" x="0" y="0" width="73" height="73" filterUnits="userSpaceOnUse">
      <feOffset dx="3" dy="3" input="SourceAlpha"/>
      <feGaussianBlur stdDeviation="3" result="blur"/>
      <feFlood flood-opacity="0.161"/>
      <feComposite operator="in" in2="blur"/>
      <feComposite in="SourceGraphic"/>
    </filter>
    <clipPath id="clip-path">
      <path id="Caminho_62533" data-name="Caminho 62533" d="M21.828,30.17q.035.293.071.586a3.5,3.5,0,0,1,.047.391,7.008,7.008,0,0,1-.54,2.49,11.03,11.03,0,0,1-1.459,2.626,21.249,21.249,0,0,1-2.36,2.7c-1.1,1.082-2.15,2.214-3.227,3.32-1.118,1.149-2.244,2.291-3.363,3.438-.713.731-1.418,1.469-2.131,2.2Q6.6,50.241,4.324,52.558q-2,2.046-4,4.095c-.1.1-.192.208-.323.351.127.006.195.012.262.012q8.344,0,16.688-.006a.538.538,0,0,0,.337-.147c.375-.365.73-.75,1.1-1.123.986-1,1.981-1.994,2.962-3,.826-.847,1.634-1.71,2.455-2.561s1.688-1.69,2.492-2.572a24.5,24.5,0,0,0,3.061-4.071,8.376,8.376,0,0,0,1.113-2.677c.006-.034.063-.058.1-.087V39.4a1.711,1.711,0,0,1-.107-.16,3.1,3.1,0,0,0-.386-.726c-1.456-1.517-2.932-3.015-4.4-4.519q-1.623-1.662-3.242-3.327c-.173-.179-.328-.375-.491-.563l-.109.069" transform="translate(0 -30.101)" fill="#f5f5f5"/>
    </clipPath>
    <clipPath id="clip-path-2">
      <path id="Caminho_62534" data-name="Caminho 62534" d="M.256,0A.51.51,0,0,0,.322.129Q1.478,1.335,2.639,2.536,4.3,4.25,5.974,5.955L9.436,9.5Q11,11.1,12.564,12.7q1.168,1.2,2.332,2.4c.265.273.276.275.55-.008.582-.6,1.147-1.218,1.745-1.8A17.983,17.983,0,0,0,20.5,9.178a8.336,8.336,0,0,0,.844-2.057,4.689,4.689,0,0,0,.009-2.453,3.008,3.008,0,0,0-.724-1.325c-1.053-1.061-2.09-2.137-3.132-3.209A.528.528,0,0,1,17.425,0Z" transform="translate(-0.256)" fill="#f5f5f5"/>
    </clipPath>
  </defs>
  <g id="SETA_DIREITA" data-name="SETA DIREITA" transform="translate(6 6)">
    <g id="Componente_11_2" data-name="Componente 11 – 2">
      <g id="base_bt">
        <g transform="matrix(1, 0, 0, 1, -6, -6)" filter="url(#Retângulo_8560)">
          <g id="Retângulo_8560-2" data-name="Retângulo 8560" transform="translate(6 6)" fill="#ff3162" stroke="#fff" stroke-width="2">
            <rect width="55" height="55" stroke="none"/>
            <rect x="1" y="1" width="53" height="53" fill="none"/>
          </g>
        </g>
      </g>
      <g id="Grupo_16028" data-name="Grupo 16028" transform="translate(11.218 12.125)" style="isolation: isolate">
        <g id="Grupo_16023" data-name="Grupo 16023" transform="translate(0 4.834)">
          <g id="Grupo_16022" data-name="Grupo 16022" clip-path="url(#clip-path)">
            <rect id="Retângulo_8578" data-name="Retângulo 8578" width="30.564" height="26.916" transform="translate(0 0)" fill="#f5f5f5"/>
          </g>
        </g>
        <g id="Grupo_16025" data-name="Grupo 16025" transform="translate(0.041)">
          <g id="Grupo_16024" data-name="Grupo 16024" clip-path="url(#clip-path-2)">
            <rect id="Retângulo_8579" data-name="Retângulo 8579" width="21.332" height="15.377" transform="translate(0)" fill="#f5f5f5"/>
          </g>
        </g>
      </g>
    </g>
  </g>
</svg>
