<svg xmlns="http://www.w3.org/2000/svg" width="39.456" height="39.456" viewBox="0 0 39.456 39.456">
  <g id="Icon_ionic-md-close-circle-outline" data-name="Icon ionic-md-close-circle-outline" transform="translate(-3.375 -3.375)">
    <path id="Caminho_360" data-name="Caminho 360" d="M23.1,7.359a15.738,15.738,0,1,1-11.135,4.61A15.679,15.679,0,0,1,23.1,7.359m0-3.984A19.728,19.728,0,1,0,42.831,23.1,19.725,19.725,0,0,0,23.1,3.375Z" fill="#0045b5"/>
    <path id="Caminho_361" data-name="Caminho 361" d="M30.416,27.656l-2.76,2.76-7.1-7.1-7.1,7.1-2.76-2.76,7.1-7.1-7.1-7.1,2.76-2.76,7.1,7.1,7.1-7.1,2.76,2.76-7.1,7.1Z" transform="translate(2.552 2.552)" fill="#0045b5"/>
  </g>
</svg>
