<svg id="Grupo_2574" data-name="Grupo 2574" xmlns="http://www.w3.org/2000/svg" xmlns:xlink="http://www.w3.org/1999/xlink" width="704" height="653" viewBox="0 0 704 653">
  <defs>
    <clipPath id="clip-path">
      <rect id="Retângulo_11376" data-name="Retângulo 11376" width="403" height="403" fill="none"/>
    </clipPath>
    <clipPath id="clip-path-2">
      <circle id="Elipse_46" data-name="Elipse 46" cx="145.192" cy="145.192" r="145.192" transform="translate(0 0)" fill="none" stroke="#707070" stroke-width="1"/>
    </clipPath>
    <clipPath id="clip-path-3">
      <rect id="Retângulo_1794" data-name="Retângulo 1794" width="87.712" height="160.756" fill="#022540"/>
    </clipPath>
    <clipPath id="clip-path-4">
      <rect id="Retângulo_1786" data-name="Retângulo 1786" width="16.513" height="33.037" fill="none"/>
    </clipPath>
    <clipPath id="clip-path-5">
      <rect id="Retângulo_7" data-name="Retângulo 7" width="16.672" height="15.169" fill="#f5d24b"/>
    </clipPath>
  </defs>
  <rect id="Retângulo_11381" data-name="Retângulo 11381" width="704" height="653" fill="#fff"/>
  <g id="Grupo_2573" data-name="Grupo 2573">
    <g id="Grupo_2570" data-name="Grupo 2570" transform="translate(61 -3)">
      <text id="XXXXXXXXXXXXXXX" transform="translate(291 521)" fill="#033990" font-size="50" font-family="IpirangaTitulos-Bold, Ipiranga Titulos" font-weight="700"><tspan x="-258.545" y="0">XXXXXXXXXXXXXXX</tspan></text>
    </g>
    <g id="Grupo_2571" data-name="Grupo 2571" transform="translate(11)">
      <g id="Grupo_1834" data-name="Grupo 1834" transform="translate(140 46)">
        <g id="Grupo_1833" data-name="Grupo 1833" clip-path="url(#clip-path)">
          <path id="Caminho_14436" data-name="Caminho 14436" d="M403,201.5C403,312.786,312.786,403,201.5,403S0,312.786,0,201.5,90.214,0,201.5,0,403,90.214,403,201.5" fill="#f5d24b"/>
          <path id="Caminho_14437" data-name="Caminho 14437" d="M64.537,348.57a166.936,166.936,0,0,1,6.389-177.684" transform="translate(-16.277 -66.225)" fill="none" stroke="#033990" stroke-linecap="round" stroke-linejoin="round" stroke-width="3"/>
          <path id="Caminho_14438" data-name="Caminho 14438" d="M560.8,171.8a170.594,170.594,0,0,1,12.755,173.989" transform="translate(-217.332 -66.578)" fill="none" stroke="#033990" stroke-linecap="round" stroke-linejoin="round" stroke-width="3"/>
          <path id="Caminho_14439" data-name="Caminho 14439" d="M119.288,115.655l9.44-9.481,2.458,2.449-6.494,6.521,3.334,3.32,5.851-5.876,2.459,2.449-5.851,5.875,3.459,3.444,6.577-6.6L143,120.22l-9.523,9.564Z" transform="translate(-46.229 -41.146)" fill="#033990"/>
          <path id="Caminho_14440" data-name="Caminho 14440" d="M156.378,113.617l-1.1-2.287a19.779,19.779,0,0,0,3.494-2.275q2.532-2.06,1.6-3.2a1.019,1.019,0,0,0-.869-.392,3.881,3.881,0,0,0-1.39.411l-1.189.589A8.731,8.731,0,0,1,153,107.533,3.725,3.725,0,0,1,150.179,106a4.072,4.072,0,0,1-.835-3.775,7.442,7.442,0,0,1,2.705-3.85,12.176,12.176,0,0,1,4.875-2.488l1.121,2.31a16.7,16.7,0,0,0-3.354,2.122,5.4,5.4,0,0,0-1.472,1.614,1.075,1.075,0,0,0,.113,1.235.98.98,0,0,0,.86.381,3.718,3.718,0,0,0,1.339-.427l1.344-.677a7.869,7.869,0,0,1,3.939-1.006,3.824,3.824,0,0,1,2.719,1.5,4.238,4.238,0,0,1,.931,3.963,8.141,8.141,0,0,1-2.945,4.045,14.22,14.22,0,0,1-5.145,2.67" transform="translate(-57.818 -37.159)" fill="#033990"/>
          <path id="Caminho_14441" data-name="Caminho 14441" d="M179.2,96.782a6.7,6.7,0,0,1-3.779-.772,8.444,8.444,0,0,1-3.059-2.875,8.169,8.169,0,0,1-1.434-4.043,7.315,7.315,0,0,1,.792-3.881,7.889,7.889,0,0,1,2.711-2.986,10,10,0,0,1,4.969-1.714l.82,2.563a11.687,11.687,0,0,0-3.117,1.471,4.313,4.313,0,0,0-2.1,2.844,4.7,4.7,0,0,0,.909,3.386,4.308,4.308,0,0,0,2.77,2.043,4.78,4.78,0,0,0,3.525-.966,17.656,17.656,0,0,0,2.613-2.125l1.848,1.772a10.535,10.535,0,0,1-3.5,3.812,8.41,8.41,0,0,1-3.966,1.471" transform="translate(-66.234 -31.201)" fill="#033990"/>
          <path id="Caminho_14442" data-name="Caminho 14442" d="M199.557,84.6a6.377,6.377,0,0,1-3.621-1.133,8.928,8.928,0,0,1-2.841-3.339A8.2,8.2,0,0,1,192.065,76a7.126,7.126,0,0,1,1.151-3.714,7.74,7.74,0,0,1,2.954-2.655,7.55,7.55,0,0,1,5.856-.777,7.785,7.785,0,0,1,4.542,4.171,8.182,8.182,0,0,1,1.029,4.128,7.238,7.238,0,0,1-1.142,3.727,7.679,7.679,0,0,1-2.949,2.668,8.388,8.388,0,0,1-3.95,1.051m-.328-3.966a3.113,3.113,0,0,0,4.292-2.262,5.187,5.187,0,0,0-.723-3.358,5.127,5.127,0,0,0-2.355-2.482,3.139,3.139,0,0,0-4.292,2.262,5.122,5.122,0,0,0,.717,3.346,5.182,5.182,0,0,0,2.362,2.493" transform="translate(-74.431 -26.573)" fill="#033990"/>
          <rect id="Retângulo_11375" data-name="Retângulo 11375" width="4.175" height="21.289" transform="translate(129.93 32.5) rotate(-23.067)" fill="#033990"/>
          <path id="Caminho_14443" data-name="Caminho 14443" d="M235.225,68.4a3.9,3.9,0,0,1-2.322-2.57,4.011,4.011,0,0,1,.436-3.59,7.308,7.308,0,0,1,3.433-2.706l3.111-1.356a3.327,3.327,0,0,0-1.554-1.991,4,4,0,0,0-2.841.18A13.713,13.713,0,0,0,232,58.158l-1.327-2.191a11.361,11.361,0,0,1,4.669-3q6.382-2.146,8.53,4.235l2.747,8.166-2.509.844L242.782,64.3a5.038,5.038,0,0,1-1.35,2.533,6.239,6.239,0,0,1-2.469,1.513,5.388,5.388,0,0,1-3.738.048m2.158-3.177a2.058,2.058,0,0,0,1.414-.042,3.259,3.259,0,0,0,1.892-1.614,3.106,3.106,0,0,0,.179-2.558l-.188-.557-2.711,1.532q-1.858,1.029-1.407,2.367a1.34,1.34,0,0,0,.821.872" transform="translate(-89.394 -20.318)" fill="#033990"/>
          <path id="Caminho_14444" data-name="Caminho 14444" d="M272.217,54.117a5.929,5.929,0,0,1-2.766-2.03,8.773,8.773,0,0,1-1.616-3.953,9.425,9.425,0,0,1,.187-4.559,6.878,6.878,0,0,1,5.482-4.846,7.2,7.2,0,0,1,3.285.16l-1.172-6.57,4.053-.724,3.739,20.958-2.577.46-1.084-2.226a5.348,5.348,0,0,1-1.592,2.374,5.448,5.448,0,0,1-2.612,1.183,6.592,6.592,0,0,1-3.326-.228m1.174-3.884a2.646,2.646,0,0,0,2.277.625,2.9,2.9,0,0,0,2.089-1.434,3.807,3.807,0,0,0,.431-2.69l-.842-4.718a6.044,6.044,0,0,0-2.433-.073,3.476,3.476,0,0,0-2.529,1.646,5.547,5.547,0,0,0-.353,3.8,4.7,4.7,0,0,0,1.36,2.849" transform="translate(-103.723 -12.244)" fill="#033990"/>
          <path id="Caminho_14445" data-name="Caminho 14445" d="M300.992,54.358a6.726,6.726,0,0,1-2.915-2.589,9.16,9.16,0,0,1-.474-8.161,7.138,7.138,0,0,1,2.528-2.955,7.593,7.593,0,0,1,3.762-1.24,7.9,7.9,0,0,1,3.587.526,5.7,5.7,0,0,1,2.535,2,6.054,6.054,0,0,1,1.066,3.155,10.311,10.311,0,0,1-.155,2.515l-9.829.66a3.96,3.96,0,0,0,1.668,2.673,5.461,5.461,0,0,0,3.452.726,24.253,24.253,0,0,0,3.7-.573l.576,2.436a12.283,12.283,0,0,1-5.083,1.55,8.793,8.793,0,0,1-4.424-.72m5.927-9.4,0-.029a2.535,2.535,0,0,0-.849-1.888,2.705,2.705,0,0,0-1.967-.546,2.982,2.982,0,0,0-2.033.888,4.059,4.059,0,0,0-1,2.234Z" transform="translate(-115.045 -15.265)" fill="#033990"/>
          <path id="Caminho_14446" data-name="Caminho 14446" d="M336.085,39.454l2.638.21.488,2.4a5.272,5.272,0,0,1,4.936-2.35,6.682,6.682,0,0,1,3.175,1.064,5.909,5.909,0,0,1,2.177,2.665,8.774,8.774,0,0,1,.562,4.234,9.419,9.419,0,0,1-1.335,4.362,6.938,6.938,0,0,1-2.863,2.619,7.077,7.077,0,0,1-3.7.679,6.9,6.9,0,0,1-3.1-1.014l-.519,6.507-4.133-.329Zm5.562,12.389a3.476,3.476,0,0,0,2.863-.951,5.488,5.488,0,0,0,1.3-3.555,4.644,4.644,0,0,0-.608-3.1,2.687,2.687,0,0,0-2.06-1.181,2.889,2.889,0,0,0-2.353.845,3.753,3.753,0,0,0-1.1,2.479l-.381,4.778a6.025,6.025,0,0,0,2.335.687" transform="translate(-129.596 -15.29)" fill="#033990"/>
          <path id="Caminho_14447" data-name="Caminho 14447" d="M365.98,42.474l2.6.467.254,2.585a5.813,5.813,0,0,1,2.139-1.767,4.1,4.1,0,0,1,2.508-.326,5.729,5.729,0,0,1,2.649,1.222l-1.08,2.853a11.684,11.684,0,0,0-1.874-.545,3.366,3.366,0,0,0-2.923.641,4.531,4.531,0,0,0-1.451,2.757l-1.36,7.583-4.11-.737Z" transform="translate(-140.807 -16.46)" fill="#033990"/>
          <path id="Caminho_14448" data-name="Caminho 14448" d="M385.842,61.846a6.375,6.375,0,0,1-1.858-3.309,8.929,8.929,0,0,1,.224-4.378,8.2,8.2,0,0,1,2.084-3.709,7.13,7.13,0,0,1,3.384-1.913,7.756,7.756,0,0,1,3.971.1,7.551,7.551,0,0,1,4.794,3.452,7.791,7.791,0,0,1,.443,6.15,8.194,8.194,0,0,1-2.083,3.709,7.224,7.224,0,0,1-3.389,1.927,7.653,7.653,0,0,1-3.975-.082,8.38,8.38,0,0,1-3.6-1.944m2.481-3.111a3.113,3.113,0,0,0,4.675,1.3,5.189,5.189,0,0,0,1.777-2.939,5.128,5.128,0,0,0-.011-3.421,3.139,3.139,0,0,0-4.675-1.3,5.131,5.131,0,0,0-1.774,2.926,5.192,5.192,0,0,0,.007,3.435" transform="translate(-148.739 -18.727)" fill="#033990"/>
          <path id="Caminho_14449" data-name="Caminho 14449" d="M412.373,68.082a5.931,5.931,0,0,1-1.263-3.191,8.766,8.766,0,0,1,.734-4.207,9.424,9.424,0,0,1,2.583-3.761,6.875,6.875,0,0,1,7.22-1.188,7.179,7.179,0,0,1,2.7,1.883l2.5-6.188,3.816,1.543-7.98,19.737-2.426-.981.266-2.462a5.354,5.354,0,0,1-2.612,1.164,5.442,5.442,0,0,1-2.841-.387,6.6,6.6,0,0,1-2.7-1.962m3.06-2.664a2.644,2.644,0,0,0,1.6,1.739,2.9,2.9,0,0,0,2.531-.1,3.81,3.81,0,0,0,1.8-2.049l1.8-4.443a6.029,6.029,0,0,0-2.021-1.356,3.477,3.477,0,0,0-3.017.048,5.543,5.543,0,0,0-2.318,3.027,4.7,4.7,0,0,0-.364,3.136" transform="translate(-159.307 -19.931)" fill="#033990"/>
          <path id="Caminho_14450" data-name="Caminho 14450" d="M437.927,79.7a7.192,7.192,0,0,1,1.035-4.958l4.207-7.753,3.644,1.977-4.249,7.831q-1.43,2.637.559,3.716a2.9,2.9,0,0,0,2.481.175,3.719,3.719,0,0,0,2.021-1.813l3.969-7.315,3.67,1.992L448.126,86.7,445.8,85.441l.541-2.416a5.254,5.254,0,0,1-2.765.842,5.813,5.813,0,0,1-2.869-.754,5.106,5.106,0,0,1-2.78-3.416" transform="translate(-169.669 -25.959)" fill="#033990"/>
          <path id="Caminho_14451" data-name="Caminho 14451" d="M464.628,93.872a6.205,6.205,0,0,1,1.245-4.224l3.514-5.149-2.331-1.591,1.889-2.769,2.332,1.591,3.222-3,2.648,1.807-2.42,3.546,3.813,2.6-1.89,2.768-3.813-2.6-3.4,4.979a2.994,2.994,0,0,0-.677,1.9,2.236,2.236,0,0,0,1.129,1.5,12.718,12.718,0,0,0,2.1,1.149l-.884,2.494a9.118,9.118,0,0,1-4.183-1.538,4.8,4.8,0,0,1-2.295-3.471" transform="translate(-180.049 -30.512)" fill="#033990"/>
          <path id="Caminho_14452" data-name="Caminho 14452" d="M480.946,109.982a6.38,6.38,0,0,1-.333-3.779,8.928,8.928,0,0,1,2.006-3.9,8.2,8.2,0,0,1,3.425-2.523,7.122,7.122,0,0,1,3.873-.351,7.756,7.756,0,0,1,3.58,1.722,7.554,7.554,0,0,1,2.948,5.119,7.791,7.791,0,0,1-2.126,5.788,8.2,8.2,0,0,1-3.425,2.524,7.244,7.244,0,0,1-3.882.363,7.667,7.667,0,0,1-3.589-1.711,8.386,8.386,0,0,1-2.477-3.252m3.541-1.814a3.113,3.113,0,0,0,3.726,3.107,5.192,5.192,0,0,0,2.83-1.948,5.129,5.129,0,0,0,1.4-3.122,3.14,3.14,0,0,0-3.727-3.107,5.134,5.134,0,0,0-2.82,1.936,5.2,5.2,0,0,0-1.407,3.134" transform="translate(-186.2 -38.485)" fill="#033990"/>
          <path id="Caminho_14453" data-name="Caminho 14453" d="M498.436,125.775l2.177-1.306a19.739,19.739,0,0,0,2.583,3.272q2.282,2.333,3.333,1.306a1.021,1.021,0,0,0,.312-.9,3.887,3.887,0,0,0-.537-1.347l-.694-1.131a8.719,8.719,0,0,1-1.423-3.811,3.72,3.72,0,0,1,1.27-2.949,4.072,4.072,0,0,1,3.683-1.175,7.444,7.444,0,0,1,4.08,2.344,12.187,12.187,0,0,1,2.922,4.628l-2.2,1.327a16.673,16.673,0,0,0-2.418-3.146,5.4,5.4,0,0,0-1.742-1.319,1.076,1.076,0,0,0-1.219.225.981.981,0,0,0-.3.891,3.72,3.72,0,0,0,.547,1.3l.8,1.278a7.862,7.862,0,0,1,1.361,3.831,3.824,3.824,0,0,1-1.248,2.845,4.237,4.237,0,0,1-3.862,1.288,8.142,8.142,0,0,1-4.3-2.564,14.207,14.207,0,0,1-3.127-4.88" transform="translate(-193.163 -45.601)" fill="#033990"/>
          <path id="Caminho_14454" data-name="Caminho 14454" d="M88.017,479.432l-1.324-1.82,1.806-.674,1.325,1.82,2.427-.884-1.324-1.82,1.8-.674,1.325,1.82,3.058-1.142,1.166,1.6-3.068,1.128,1.472,2.024,3.058-1.142,1.166,1.6L97.838,482.4l1.325,1.82-1.806.675-1.324-1.82-2.427.884,1.325,1.82-1.806.674L91.8,484.63l-3.1,1.147-1.166-1.6,3.109-1.132-1.463-2.009-3.1,1.147-1.165-1.6Zm4.434,2.937,2.416-.9L93.4,479.46l-2.416.9Z" transform="translate(-32.909 -184.227)" fill="#033990"/>
          <path id="Caminho_14455" data-name="Caminho 14455" d="M101.087,499.21a4.976,4.976,0,0,1,.427-3,6.961,6.961,0,0,1,2.2-2.579,7.3,7.3,0,0,1,3.271-1.432,6.327,6.327,0,0,1,3.282.329,6.527,6.527,0,0,1,2.7,1.938,7.492,7.492,0,0,1,1.7,3.641l-1.667.638a8.714,8.714,0,0,0-1.482-2.5,4.092,4.092,0,0,0-2.87-1.617,4.729,4.729,0,0,0-3.187,1.077,3.56,3.56,0,0,0-.617,5.691,14.8,14.8,0,0,0,2.1,2.038l-1.1,1.251a9.989,9.989,0,0,1-1.741-1.03,8.65,8.65,0,0,1-1.508-1.408,6.313,6.313,0,0,1-1.5-3.035" transform="translate(-39.148 -190.713)" fill="#033990"/>
          <path id="Caminho_14456" data-name="Caminho 14456" d="M112.706,514.032a3.622,3.622,0,0,1,.142-2.275,5.941,5.941,0,0,1,4.023-3.343,4.812,4.812,0,0,1,2.475.129,4.971,4.971,0,0,1,2.1,1.336,4.4,4.4,0,0,1,1.383,3.3,4.614,4.614,0,0,1-1.881,3.254,5.346,5.346,0,0,1-2.4,1.2,4.893,4.893,0,0,1-4.586-1.453,4.943,4.943,0,0,1-1.259-2.148m2.4-.769a1.706,1.706,0,0,0,.478,1.551,1.94,1.94,0,0,0,1.583.62,3.4,3.4,0,0,0,1.966-.91,3.064,3.064,0,0,0,1.172-1.734,1.71,1.71,0,0,0-.485-1.545,1.95,1.95,0,0,0-1.576-.627,3.36,3.36,0,0,0-1.959.9,3.1,3.1,0,0,0-1.18,1.739" transform="translate(-43.631 -196.99)" fill="#033990"/>
          <path id="Caminho_14457" data-name="Caminho 14457" d="M129.991,518.857l1.2,1.12-.765,1.3a3.535,3.535,0,0,1,1.849-.013,3.849,3.849,0,0,1,1.64.937,3.064,3.064,0,0,1,1.128,2.462,4.184,4.184,0,0,1-1.509,2.684l-3.979,3.774-1.874-1.755,4-3.8a2.212,2.212,0,0,0,.772-1.22,1.212,1.212,0,0,0-.461-1.053,1.983,1.983,0,0,0-1.519-.551,2.418,2.418,0,0,0-1.569.7L125.152,527l-1.888-1.767Z" transform="translate(-47.769 -201.077)" fill="#033990"/>
          <path id="Caminho_14458" data-name="Caminho 14458" d="M139.5,539.413a3.8,3.8,0,0,1-.139-2.313,4.988,4.988,0,0,1,1.275-2.218,5.239,5.239,0,0,1,2.259-1.455,4.942,4.942,0,0,1,2.521-.137,5.13,5.13,0,0,1,2.281,1.116,5.981,5.981,0,0,1,1.865,2.622l-1.446.87a7.126,7.126,0,0,0-1.414-1.584,2.842,2.842,0,0,0-2.094-.781,3.05,3.05,0,0,0-1.94,1.048,2.511,2.511,0,0,0-.808,1.922,2.835,2.835,0,0,0,1.169,1.9,11.225,11.225,0,0,0,1.735,1.19l-.792,1.346a6.873,6.873,0,0,1-2.92-1.449,5.048,5.048,0,0,1-1.551-2.076" transform="translate(-53.962 -206.631)" fill="#033990"/>
          <path id="Caminho_14459" data-name="Caminho 14459" d="M158.009,535.892l2.06,1.586-8.593,9.905-2.06-1.587Z" transform="translate(-57.904 -207.678)" fill="#033990"/>
          <path id="Caminho_14460" data-name="Caminho 14460" d="M158.367,552.751a4.164,4.164,0,0,1,1.1-2.86l3.36-4.252,2.12,1.486-3.394,4.295q-1.142,1.445.015,2.258a1.94,1.94,0,0,0,1.55.315,2.384,2.384,0,0,0,1.44-.906l3.17-4.011,2.134,1.5-5.7,7.214-1.352-.948.561-1.391a3.54,3.54,0,0,1-1.821.265,3.821,3.821,0,0,1-1.742-.693,3.037,3.037,0,0,1-1.444-2.268" transform="translate(-61.37 -211.456)" fill="#033990"/>
          <path id="Caminho_14461" data-name="Caminho 14461" d="M177.162,554.121l2.205,1.4-5.346,7.451-2.2-1.4Zm.8-1.837,4.129-.869.273,1.985-4.151.237Z" transform="translate(-66.586 -213.694)" fill="#033990"/>
          <path id="Caminho_14462" data-name="Caminho 14462" d="M183.193,568.421a4.729,4.729,0,0,1-.688-2.869,7.064,7.064,0,0,1,1.195-3.289,6.945,6.945,0,0,1,2.482-2.411,6.216,6.216,0,0,1,6.177.023,6.328,6.328,0,0,1,2.356,2.171,4.742,4.742,0,0,1,.693,2.861,7.808,7.808,0,0,1-3.668,5.705,6.094,6.094,0,0,1-3.1.818,6.735,6.735,0,0,1-5.448-3.008m2.065-1.771a2.787,2.787,0,0,0,1.485,2.062,3.1,3.1,0,0,0,2.642.243,4.835,4.835,0,0,0,2.42-2.126,4.426,4.426,0,0,0,.854-3.029,2.79,2.79,0,0,0-1.486-2.062,3.093,3.093,0,0,0-2.641-.242,4.831,4.831,0,0,0-2.42,2.125,4.423,4.423,0,0,0-.854,3.029" transform="translate(-70.723 -216.65)" fill="#033990"/>
          <path id="Caminho_14463" data-name="Caminho 14463" d="M203.866,579.238a5.033,5.033,0,0,1-.956-2.891,6.547,6.547,0,0,1,.838-3.211,6.818,6.818,0,0,1,2.325-2.6,6.238,6.238,0,0,1,3.125-1.006,6.882,6.882,0,0,1,3.315.684,8.035,8.035,0,0,1,3.174,2.623l-1.225,1.24A9.422,9.422,0,0,0,212,572.4a4.263,4.263,0,0,0-3.328-.325,4.447,4.447,0,0,0-2.409,2.243,3.761,3.761,0,0,0-.39,3.1,4.224,4.224,0,0,0,2.378,2.307,15.775,15.775,0,0,0,2.815,1.012l-.438,1.572a10.4,10.4,0,0,1-2.041-.241,9.216,9.216,0,0,1-2-.676,6.783,6.783,0,0,1-2.722-2.153" transform="translate(-78.635 -220.713)" fill="#033990"/>
          <path id="Caminho_14464" data-name="Caminho 14464" d="M220.087,587.119a4.1,4.1,0,0,1,.35-3.024l2.192-4.882,2.435.968-2.213,4.93q-.746,1.66.584,2.189a1.954,1.954,0,0,0,1.585-.041,2.292,2.292,0,0,0,1.17-1.2l2.067-4.6,2.452.975-3.718,8.282-1.554-.618.195-1.476a3.465,3.465,0,0,1-1.7.665,3.906,3.906,0,0,1-1.867-.283,3.154,3.154,0,0,1-1.975-1.878" transform="translate(-85.232 -224.467)" fill="#033990"/>
          <path id="Caminho_14465" data-name="Caminho 14465" d="M239.348,585.806l1.589.533-.112,1.557a3.768,3.768,0,0,1,1.531-.837,2.764,2.764,0,0,1,1.612.053,3.663,3.663,0,0,1,1.537.984l-.978,1.585a7.635,7.635,0,0,0-1.121-.508,2.266,2.266,0,0,0-1.905.092,2.753,2.753,0,0,0-1.2,1.491l-1.651,4.359-2.507-.842Z" transform="translate(-91.513 -227.022)" fill="#033990"/>
          <path id="Caminho_14466" data-name="Caminho 14466" d="M249.312,598.377l.81-1.321a12.94,12.94,0,0,0,2.452.965q1.993.56,2.262-.286a.586.586,0,0,0-.1-.564,2.436,2.436,0,0,0-.715-.551l-.736-.391a5.459,5.459,0,0,1-1.972-1.586,2.119,2.119,0,0,1-.2-1.918,2.517,2.517,0,0,1,1.69-1.692,5.025,5.025,0,0,1,3,.04,7.918,7.918,0,0,1,3.06,1.578l-.816,1.338a10.965,10.965,0,0,0-2.321-.948,3.637,3.637,0,0,0-1.379-.184.677.677,0,0,0-.611.474.563.563,0,0,0,.108.555,2.341,2.341,0,0,0,.7.521l.839.439a4.913,4.913,0,0,1,1.943,1.615,2.176,2.176,0,0,1,.183,1.858,2.61,2.61,0,0,1-1.755,1.8,5.486,5.486,0,0,1-3.188-.093,9.234,9.234,0,0,1-3.252-1.651" transform="translate(-96.618 -228.966)" fill="#033990"/>
          <path id="Caminho_14467" data-name="Caminho 14467" d="M267.543,603.281a3.8,3.8,0,0,1-1.273-1.937,5.068,5.068,0,0,1,.024-2.633,4.839,4.839,0,0,1,1.227-2.28,4.59,4.59,0,0,1,2.1-1.236,5.234,5.234,0,0,1,2.532-.046A4.834,4.834,0,0,1,275.3,597.1a4.442,4.442,0,0,1,.448,3.68,4.827,4.827,0,0,1-1.226,2.28,4.655,4.655,0,0,1-2.106,1.245,5.175,5.175,0,0,1-2.534.054,5.467,5.467,0,0,1-2.342-1.074m1.5-1.93a1.862,1.862,0,0,0,1.338,1.008,1.97,1.97,0,0,0,1.674-.35,3.083,3.083,0,0,0,1.053-1.81,2.916,2.916,0,0,0-.1-2.053,1.877,1.877,0,0,0-1.341-1,1.987,1.987,0,0,0-1.672.342,3.049,3.049,0,0,0-1.051,1.8,2.951,2.951,0,0,0,.1,2.062" transform="translate(-103.127 -230.591)" fill="#033990"/>
          <path id="Caminho_14468" data-name="Caminho 14468" d="M286.727,593.053l4.725.685a7.629,7.629,0,0,1,3.222,1.173,5.125,5.125,0,0,1,1.927,2.361,6.134,6.134,0,0,1,.285,3.348,5.835,5.835,0,0,1-4.042,4.749,7.311,7.311,0,0,1-3.342.258l-4.725-.685Zm3.132,10.391a4,4,0,0,0,1.934-.167,3.273,3.273,0,0,0,1.507-1.094,4.744,4.744,0,0,0,.672-4.094,3.1,3.1,0,0,0-1.085-1.48,3.907,3.907,0,0,0-1.79-.706l-2-.29-1.237,7.542Z" transform="translate(-110.362 -229.831)" fill="#033990"/>
          <path id="Caminho_14469" data-name="Caminho 14469" d="M309.4,609.637a4.105,4.105,0,0,1-1.6-1.793,4.811,4.811,0,0,1-.386-2.438,4.873,4.873,0,0,1,.846-2.454,4.486,4.486,0,0,1,1.869-1.535,5.093,5.093,0,0,1,2.488-.41,5.253,5.253,0,0,1,2.213.625,3.515,3.515,0,0,1,1.414,1.407,3.45,3.45,0,0,1,.38,1.968,5.868,5.868,0,0,1-.332,1.482l-6.26-.464a2.316,2.316,0,0,0,.8,1.734,3.6,3.6,0,0,0,2.111.732,16.338,16.338,0,0,0,2.389-.018l.137,1.5a8.269,8.269,0,0,1-3.35.478,5.835,5.835,0,0,1-2.724-.813m4.611-5.072v-.017a1.46,1.46,0,0,0-.36-1.2,1.771,1.771,0,0,0-1.189-.5,1.985,1.985,0,0,0-1.365.351,2.427,2.427,0,0,0-.838,1.24Z" transform="translate(-119.127 -232.907)" fill="#033990"/>
          <path id="Caminho_14470" data-name="Caminho 14470" d="M326.57,597.087l8.529.086-.026,2.084-5.867-.059-.036,2.826,5.287.053-.026,2.085-5.286-.054-.036,2.932,5.942.06-.026,2.1-8.6-.088Z" transform="translate(-126.501 -231.394)" fill="#033990"/>
          <path id="Caminho_14471" data-name="Caminho 14471" d="M347.124,606.055l-3.589-4.257,3.069-.172,2.1,2.695,1.885-2.919,2.956-.165-3.078,4.56,3.842,4.4-3.107.174-2.338-2.877-2,3.12-2.976.167Z" transform="translate(-133.133 -233.002)" fill="#033990"/>
          <path id="Caminho_14472" data-name="Caminho 14472" d="M365.559,606.972a3.638,3.638,0,0,1-1.185-2.4l-.489-3.715-1.786.21-.263-2,1.787-.21.276-2.631,2.028-.239.337,2.559,2.921-.344.263,2-2.921.344.473,3.593a1.744,1.744,0,0,0,.48,1.127,1.489,1.489,0,0,0,1.172.227,8.542,8.542,0,0,0,1.489-.317l.629,1.474a6.045,6.045,0,0,1-2.649.97,3.192,3.192,0,0,1-2.561-.651" transform="translate(-140.225 -230.969)" fill="#033990"/>
          <path id="Caminho_14473" data-name="Caminho 14473" d="M377.821,598.322l1.66-.284.726,1.4a3.457,3.457,0,0,1,.885-1.444,2.671,2.671,0,0,1,1.426-.71,3.871,3.871,0,0,1,1.854.131l-.01,1.833a7.921,7.921,0,0,0-1.24.086,2.158,2.158,0,0,0-1.6.974,2.581,2.581,0,0,0-.254,1.856l.874,4.553-2.62.448Z" transform="translate(-146.42 -231.449)" fill="#033990"/>
          <path id="Caminho_14474" data-name="Caminho 14474" d="M393.117,604.256a2.364,2.364,0,0,1-1.329-1.66,2.306,2.306,0,0,1,.481-2.125,4.689,4.689,0,0,1,2.333-1.437l2.052-.647a1.992,1.992,0,0,0-.874-1.273,2.694,2.694,0,0,0-1.813-.042,9.042,9.042,0,0,0-2.319.889l-.718-1.381a7.407,7.407,0,0,1,3.135-1.546q4.175-.946,5.176,2.986l1.281,5.031-1.64.372-.734-1.214a3.021,3.021,0,0,1-1,1.444,4.077,4.077,0,0,1-1.654.775,3.629,3.629,0,0,1-2.376-.169m1.55-1.787a1.391,1.391,0,0,0,.9.05,2.086,2.086,0,0,0,1.293-.865,1.777,1.777,0,0,0,.259-1.521l-.088-.344-1.809.774q-1.238.516-1.028,1.341a.815.815,0,0,0,.472.565" transform="translate(-151.501 -230.526)" fill="#033990"/>
          <path id="Caminho_14475" data-name="Caminho 14475" d="M412.578,603.233l-.072-1a6,6,0,0,0,1.3-.23,1.264,1.264,0,0,0,.594-.312.371.371,0,0,0,.1-.372q-.111-.337-.759-.222l-.505.074-.232-1.485a4.62,4.62,0,0,1-3.123-.7,4.816,4.816,0,0,1-1.911-2.622,4.64,4.64,0,0,1-.146-2.573,4.334,4.334,0,0,1,1.185-2.1,5.1,5.1,0,0,1,2.2-1.26,6.75,6.75,0,0,1,3.348-.145l.039,1.615a7.89,7.89,0,0,0-2.172.32,2.736,2.736,0,0,0-1.8,1.282,2.673,2.673,0,0,0-.055,2.106,2.611,2.611,0,0,0,1.325,1.646,3.216,3.216,0,0,0,2.329.042,11.665,11.665,0,0,0,1.981-.782l.811,1.335a6.755,6.755,0,0,1-2.634,1.545l.153.529a2.293,2.293,0,0,1,1.267.12,1.22,1.22,0,0,1,.693.768,1.435,1.435,0,0,1-.233,1.325,2.77,2.77,0,0,1-1.565.974,4.6,4.6,0,0,1-2.119.12" transform="translate(-158.002 -228.703)" fill="#033990"/>
          <path id="Caminho_14476" data-name="Caminho 14476" d="M422.435,580.346a2.052,2.052,0,0,1,.662-.125,4.937,4.937,0,0,1,.777.061c.278.026.5.041.661.046a1.268,1.268,0,0,0,.471-.075.993.993,0,0,0,.614-1.11l1.256-.168q.593,2.208-1.177,2.844a1.991,1.991,0,0,1-.674.119,7.227,7.227,0,0,1-.783-.049,5.33,5.33,0,0,0-.649-.041,1.411,1.411,0,0,0-.459.08.989.989,0,0,0-.622,1.093l-1.249.185q-.6-2.222,1.17-2.86m2.589,12.3a2.416,2.416,0,0,1-1.545-1.485,2.293,2.293,0,0,1,.187-2.166,4.591,4.591,0,0,1,2.118-1.708l1.948-.89a2.038,2.038,0,0,0-1.04-1.158,2.7,2.7,0,0,0-1.8.178,8.931,8.931,0,0,0-2.179,1.162l-.9-1.282a7.273,7.273,0,0,1,2.9-1.913q4.011-1.444,5.54,2.334l1.956,4.835-1.576.568L429.735,590a2.962,2.962,0,0,1-.8,1.553,3.987,3.987,0,0,1-1.535.968,3.629,3.629,0,0,1-2.379.119m1.294-1.959a1.392,1.392,0,0,0,.9-.059,2.044,2.044,0,0,0,1.165-1.015,1.77,1.77,0,0,0,.05-1.539l-.134-.33-1.688.985q-1.158.662-.837,1.455a.83.83,0,0,0,.544.5" transform="translate(-163.197 -224.374)" fill="#033990"/>
          <path id="Caminho_14477" data-name="Caminho 14477" d="M443.33,588.38a4.225,4.225,0,0,1-2.269-.789,5.407,5.407,0,0,1-1.7-2.09,4.676,4.676,0,0,1-.521-2.507,4.133,4.133,0,0,1,.854-2.193,4.9,4.9,0,0,1,1.968-1.5,5.092,5.092,0,0,1,3.754-.289,4.83,4.83,0,0,1,2.755,2.64,4.684,4.684,0,0,1,.52,2.507,4.2,4.2,0,0,1-.85,2.2,4.845,4.845,0,0,1-1.964,1.51,5.633,5.633,0,0,1-2.55.511m-.079-2.389a1.986,1.986,0,0,0,1.714.019,1.806,1.806,0,0,0,1.093-1.246,2.959,2.959,0,0,0-.351-2.036,3.142,3.142,0,0,0-1.418-1.561,2,2,0,0,0-1.711-.011,1.816,1.816,0,0,0-1.1,1.238,2.925,2.925,0,0,0,.347,2.029,3.18,3.18,0,0,0,1.422,1.568" transform="translate(-170.061 -224.297)" fill="#033990"/>
          <path id="Caminho_14478" data-name="Caminho 14478" d="M451.442,568.962l4.167-2.211a7.721,7.721,0,0,1,3.3-.952,5.652,5.652,0,0,1,3.064.735A6.657,6.657,0,0,1,464.4,569a5.769,5.769,0,0,1,.889,3.165,5.333,5.333,0,0,1-.957,2.919,6.765,6.765,0,0,1-2.462,2.147l-4.167,2.211Zm9.275,6.345a3.688,3.688,0,0,0,1.412-1.256,2.958,2.958,0,0,0,.469-1.737,4.183,4.183,0,0,0-.654-2.014,4.557,4.557,0,0,0-1.5-1.595,3.423,3.423,0,0,0-1.823-.532,3.947,3.947,0,0,0-1.872.486l-1.764.937,3.968,6.648Z" transform="translate(-174.951 -219.266)" fill="#033990"/>
          <path id="Caminho_14479" data-name="Caminho 14479" d="M480.4,569.011a4.508,4.508,0,0,1-2.435-.466,5.268,5.268,0,0,1-1.913-1.68,4.878,4.878,0,0,1-.959-2.415,4.074,4.074,0,0,1,.449-2.3,4.651,4.651,0,0,1,1.678-1.78,5.213,5.213,0,0,1,2.146-.81,3.836,3.836,0,0,1,2.036.272,3.792,3.792,0,0,1,1.6,1.316,6.024,6.024,0,0,1,.719,1.354l-5.209,3.309a2.574,2.574,0,0,0,1.775.884,3.636,3.636,0,0,0,2.137-.665,15.479,15.479,0,0,0,1.859-1.416l1.1,1.092a7.587,7.587,0,0,1-2.307,2.338,5.827,5.827,0,0,1-2.671.962m.262-6.671-.011-.015a1.613,1.613,0,0,0-1.072-.725,2.031,2.031,0,0,0-2.1,1.385,2.306,2.306,0,0,0,.164,1.461Z" transform="translate(-184.11 -216.839)" fill="#033990"/>
          <path id="Caminho_14480" data-name="Caminho 14480" d="M484.387,549.048l3.7-2.738a6.033,6.033,0,0,1,2.455-1.131,4.27,4.27,0,0,1,4.238,1.524,4,4,0,0,1,.927,2.03,3.782,3.782,0,0,1-.375,2.2,5.468,5.468,0,0,1-1.738,1.992l-1.578,1.168,2.371,2.847-2.124,1.572Zm7.694,2.255a2.232,2.232,0,0,0,1.015-1.458,1.937,1.937,0,0,0-.513-1.517,2.138,2.138,0,0,0-1.45-.812,2.461,2.461,0,0,0-1.735.565l-1.475,1.091,2.684,3.222Z" transform="translate(-187.718 -211.243)" fill="#033990"/>
          <path id="Caminho_14481" data-name="Caminho 14481" d="M510.4,547.258a4.533,4.533,0,0,1-2.481-.135,5.41,5.41,0,0,1-2.147-1.408,4.978,4.978,0,0,1-1.311-2.263,4.041,4.041,0,0,1,.1-2.333,4.553,4.553,0,0,1,1.4-1.986,5.112,5.112,0,0,1,2-1.087,3.852,3.852,0,0,1,2.057,0,3.894,3.894,0,0,1,1.779,1.091,6.159,6.159,0,0,1,.915,1.244l-4.661,3.969a2.622,2.622,0,0,0,1.89.639,3.571,3.571,0,0,0,2.015-.943,15.028,15.028,0,0,0,1.629-1.649l1.249.935a7.4,7.4,0,0,1-1.933,2.622,5.717,5.717,0,0,1-2.5,1.308m-.743-6.638-.013-.013a1.648,1.648,0,0,0-1.17-.574,1.989,1.989,0,0,0-1.868,1.65,2.326,2.326,0,0,0,.381,1.425Z" transform="translate(-195.449 -208.458)" fill="#033990"/>
          <path id="Caminho_14482" data-name="Caminho 14482" d="M521.87,535.216a4.052,4.052,0,0,1-2.516-1.171l-2.849-2.609-1.255,1.216-1.531-1.4,1.255-1.216-1.53-2.215,1.425-1.381,1.962,1.8,2.052-1.989,1.532,1.4-2.052,1.989,2.754,2.523a1.941,1.941,0,0,0,1.123.6,1.459,1.459,0,0,0,1.066-.514,7.7,7.7,0,0,0,.951-1.125l1.47.779a5.416,5.416,0,0,1-1.425,2.318,3.152,3.152,0,0,1-2.431,1" transform="translate(-198.979 -203.94)" fill="#033990"/>
          <path id="Caminho_14483" data-name="Caminho 14483" d="M525.025,520.547l1.1-1.2,1.5.661a3.323,3.323,0,0,1-.272-1.648,2.4,2.4,0,0,1,.638-1.4,3.677,3.677,0,0,1,1.532-.994l1.212,1.432a7.366,7.366,0,0,0-.909.8,1.953,1.953,0,0,0-.6,1.707,2.7,2.7,0,0,0,1.039,1.594l3.713,3.026-1.742,1.9Z" transform="translate(-203.467 -199.957)" fill="#033990"/>
          <path id="Caminho_14484" data-name="Caminho 14484" d="M542.633,514.869a4.289,4.289,0,0,1-2.4.3,5.856,5.856,0,0,1-2.54-1.1,4.979,4.979,0,0,1-1.7-1.986,4.049,4.049,0,0,1-.334-2.313,4.527,4.527,0,0,1,.995-2.2,4.867,4.867,0,0,1,3.177-1.91,5.172,5.172,0,0,1,3.746,1.119,4.977,4.977,0,0,1,1.7,1.986,4.114,4.114,0,0,1,.341,2.32,4.474,4.474,0,0,1-.987,2.2,5.286,5.286,0,0,1-2,1.575m-1.256-2.075a1.923,1.923,0,0,0,1.526-.739,1.7,1.7,0,0,0,.347-1.582,3.131,3.131,0,0,0-1.32-1.645,3.387,3.387,0,0,0-2.029-.754,1.933,1.933,0,0,0-1.518.744,1.705,1.705,0,0,0-.355,1.577,3.1,3.1,0,0,0,1.313,1.64,3.427,3.427,0,0,0,2.036.759" transform="translate(-207.57 -195.951)" fill="#033990"/>
          <path id="Caminho_14485" data-name="Caminho 14485" d="M538.712,495.757l1.488-2.08,11.251,7.143-1.489,2.081Z" transform="translate(-208.771 -191.319)" fill="#033990"/>
          <path id="Caminho_14486" data-name="Caminho 14486" d="M547.146,486.284l-.5-4.145,2.1-.076-.083,4.129Zm9.641,6.019a4.493,4.493,0,0,1-2.415.557,5.621,5.621,0,0,1-2.492-.751,5.243,5.243,0,0,1-1.959-1.8,4.094,4.094,0,0,1-.633-2.258A4.369,4.369,0,0,1,550,485.77a4.874,4.874,0,0,1,1.576-1.593,3.8,3.8,0,0,1,1.966-.573,4.043,4.043,0,0,1,2.042.55,6.53,6.53,0,0,1,1.262.935l-3.218,5.083a2.666,2.666,0,0,0,2.006.088,3.409,3.409,0,0,0,1.632-1.459,14.259,14.259,0,0,0,1.044-2.027l1.486.546a7.1,7.1,0,0,1-1.03,3.042,5.446,5.446,0,0,1-1.982,1.941m-2.781-6.137-.017-.009a1.76,1.76,0,0,0-2.569,1.869,2.414,2.414,0,0,0,.809,1.256Z" transform="translate(-211.848 -186.818)" fill="#033990"/>
          <path id="Caminho_14487" data-name="Caminho 14487" d="M567.379,478.228a4.233,4.233,0,0,1-2.295.723,5.961,5.961,0,0,1-2.713-.627,5.143,5.143,0,0,1-2.072-1.648,4.117,4.117,0,0,1-.791-2.213,4.435,4.435,0,0,1,.538-2.332,4.716,4.716,0,0,1,2.738-2.439,5.236,5.236,0,0,1,3.9.433,5.149,5.149,0,0,1,2.071,1.648,4.174,4.174,0,0,1,.8,2.216,4.385,4.385,0,0,1-.529,2.336,5.122,5.122,0,0,1-1.651,1.9m-1.648-1.815a1.87,1.87,0,0,0,1.35-1,1.681,1.681,0,0,0,.025-1.615,3.23,3.23,0,0,0-1.626-1.38,3.44,3.44,0,0,0-2.143-.38,1.879,1.879,0,0,0-1.343,1,1.694,1.694,0,0,0-.033,1.612,3.2,3.2,0,0,0,1.618,1.377,3.49,3.49,0,0,0,2.152.383" transform="translate(-216.829 -181.944)" fill="#033990"/>
          <path id="Caminho_14488" data-name="Caminho 14488" d="M539.287,147.144A2.144,2.144,0,1,1,537.144,145a2.144,2.144,0,0,1,2.144,2.144" transform="translate(-207.333 -56.193)" fill="#033990"/>
          <path id="Caminho_14489" data-name="Caminho 14489" d="M548.45,157.225A1.225,1.225,0,1,1,547.225,156a1.225,1.225,0,0,1,1.225,1.225" transform="translate(-211.596 -60.456)" fill="#033990"/>
          <path id="Caminho_14490" data-name="Caminho 14490" d="M110.81,146.415a2.144,2.144,0,1,1-2.39-1.864,2.144,2.144,0,0,1,2.39,1.864" transform="translate(-41.288 -56.013)" fill="#033990"/>
          <path id="Caminho_14491" data-name="Caminho 14491" d="M102.1,156.712a1.225,1.225,0,1,1-1.366-1.065,1.225,1.225,0,0,1,1.366,1.065" transform="translate(-38.62 -60.315)" fill="#033990"/>
        </g>
      </g>
      <g id="Grupo_269" data-name="Grupo 269" transform="translate(-10681.692 -12196.946)">
        <circle id="Elipse_47" data-name="Elipse 47" cx="145.192" cy="145.192" r="145.192" transform="translate(10878 12299.254)" fill="#4eabf8"/>
        <g id="Grupo_de_máscara_6" data-name="Grupo de máscara 6" transform="translate(10878 12299.254)" clip-path="url(#clip-path-2)">
          <g id="Grupo_268" data-name="Grupo 268" transform="translate(-26.734 42.953)">
            <rect id="Retângulo_1795" data-name="Retângulo 1795" width="343.852" height="89.42" transform="translate(0 158.012)" fill="#2a86d1"/>
            <g id="Grupo_267" data-name="Grupo 267" transform="translate(40.004 0)">
              <rect id="Retângulo_1787" data-name="Retângulo 1787" width="20.092" height="24.113" transform="translate(12.057 136.643)" fill="#022540"/>
              <rect id="Retângulo_1788" data-name="Retângulo 1788" width="20.101" height="24.113" transform="translate(112.524 136.643)" fill="#022540"/>
              <path id="Caminho_1148" data-name="Caminho 1148" d="M1086.146,211.96h-8.035V55.222l4.016-4.018,4.019,4.018Z" transform="translate(-1009.789 -51.204)" fill="#0045b5"/>
              <path id="Caminho_1149" data-name="Caminho 1149" d="M1055.374,364.526l-4.018,4.02H914.714l-4.017-4.02v-8.039h144.678Z" transform="translate(-910.696 -231.902)" fill="#023e9f"/>
              <path id="Caminho_1150" data-name="Caminho 1150" d="M1065.331,144.086l-.966-4.7-5.94-29.338-.966-4.741-.046-.159-1.448-7.112-2.927-14.39-.922-4.7h.393V70.905h-2.048v0l-.013,0H1038.5l-.017,0v0h-2.048v8.039h.393l-.917,4.7-2.932,14.39-1.448,7.112-.039.159-.967,4.741-5.945,29.338-.965,4.7-9.121,44.971,1.365.282,2.092,2.129,26.52-26.524L1071,191.468l2.09-2.129,1.369-.282Zm-36.893-.846h32.073l-16.035,16.039Zm16.035-51.04,7.793,7.8.6,3.054h-16.792l.6-3.054Zm-3.528-13.256H1048l.689,3.371-4.219,4.223-4.221-4.223Zm-5.715,28.13h18.488l.323,1.649-9.564,9.562-9.566-9.566Zm20.46,28.13h-22.427l11.213-11.213Zm3.213-2.493,0,0-11.577-11.576,7.679-7.677Zm-8.076-39.823-3.5-3.5,0,0,2.328-2.334Zm-11.534-5.833,2.328,2.334-3.5,3.493Zm-5.347,26.4,7.677,7.679-11.579,11.574,0,0Zm-14.348,70.69,7.439-36.649,14.624,14.63Zm27.732-22.019,14.582-14.63,7.435,36.649,0,0-22.023-22.023Z" transform="translate(-972.135 -62.863)" fill="#023e9f"/>
              <rect id="Retângulo_1789" data-name="Retângulo 1789" width="36.169" height="36.169" transform="translate(4.017 88.416)" fill="#012c74"/>
              <path id="Caminho_1151" data-name="Caminho 1151" d="M1194.737,244.8l-1.564,1.564v-.248h-4.068v-4.068h-.242l1.564-1.56-1.442-1.442-51.793,51.788,1.442,1.442.666-.664v.246h4.066v4.064h.252l-.673.667,1.443,1.44,51.789-51.793Zm-3.354,3.352-2.278,2.278v-2.278Zm-46.227,37.6.445-.441v.246h4.07v4.064h.248l-.453.45v-.249H1145.4v-4.07Zm2.233-2.229,2.282-2.278v2.278Zm4.31,0v-4.072h-.238l.435-.439v.248h4.076v4.066h.24l-.437.439v-.242Zm2.282,2.034-2.282,2.28v-2.28Zm-.29-8.331,2.282-2.286v2.286Zm4.312,0v-4.074h-.242l.438-.437v.244h4.069v4.066h.248l-.445.445v-.244Zm2.28,2.034-2.28,2.278v-2.278Zm-.29-8.337,2.276-2.274v2.274Zm4.314,0v-4.072h-.242l.435-.437v.24h4.07v4.072h.24l-.436.443v-.246Zm2.278,2.036-2.278,2.274v-2.274Zm-.294-8.333,2.28-2.282v2.282Zm4.309,0V260.55h-.236l.432-.435v.242h4.07v4.068h.25l-.439.438v-.24Zm2.286,2.028-2.286,2.286V266.65Zm-.292-8.331,2.272-2.272v2.272Zm4.31,0v-4.068h-.242l.438-.437v.24h4.068v4.07h.25l-.445.445v-.25Zm2.278,2.038-2.278,2.274v-2.274Zm7.894-8.337h-3.87v-3.87h3.87Zm-4.066-4.072h-.047l.047-.04Zm-4.119,4.072,2.276-2.276v2.276Zm4.314,2.034h2.277l-2.277,2.28Zm4.068-1.836h.047l-.047.047Zm-.2-6.1H1184.8l2.278-2.278Zm-45.985,43.705,2.277-2.28v2.28Zm4.316,2.038h2.272l-2.272,2.274Z" transform="translate(-1044.761 -162.388)" fill="#2a86d1"/>
              <path id="Caminho_1152" data-name="Caminho 1152" d="M1279.931,231.345l-8.633,8.631-7.191-7.191,4.315-4.316h8.635Z" transform="translate(-1119.882 -156.128)" fill="#012c73"/>
              <g id="Grupo_265" data-name="Grupo 265" transform="translate(80.768 18.898)" opacity="0.343">
                <g id="Grupo_264" data-name="Grupo 264" transform="translate(0 0)">
                  <g id="Grupo_263" data-name="Grupo 263" clip-path="url(#clip-path-3)">
                    <path id="Caminho_1153" data-name="Caminho 1153" d="M1175.664,126.421l-2.874-2.876h-8.635l-4.315,4.316-43.195,43.193-7.836-38.627-.966-4.7L1101.9,98.385l-.966-4.741-.046-.159-1.447-7.112-2.928-14.39-.922-4.7h.393V59.245h-2.047v0l-.006,0h-1.965V55.222l-4.019-4.018V211.96h4.019V187.847h36.168V211.96h20.1V187.847h8.035l4.018-4.02v-8.039H1126.3l40.733-40.736Zm-83.693-56.745.2.979-.2.2Zm0,6.887,1.165-1.167,1.169,5.833-2.334-2.333Zm0,8,3.774,3.781.6,3.054h-4.378Zm0,10.854h5.225l.323,1.649-5.548,5.543Zm0,12.9,6.514-6.51,3.9,19.251-10.41-10.407Zm0,8.039,7.194,7.2h-7.194Zm0,15.23h12.018l-12.018,12.02Zm0,44.208V157.3l18.484,18.487Zm0-24.149V149.3l13.419-13.459,7.435,36.649Zm60.049-13.08v2.278h-2.28Zm-6.3,6.3v2.276h-2.272Zm-6.3,6.3v2.284h-2.279Zm-6.3,6.3v2.28h-2.28Zm-6.3,6.3v2.28h-2.287Zm-6.3,12.029h-2.914l-.295-1.419h3.209Zm0-3.452h-2.282l2.282-2.278Zm2.889,3.452h-.861V174.37h2.282Zm3.215-3.21v-.242h-4.076v-4.072h-.234l.432-.439v.248h4.076v4.066h.24Zm2.227-2.227v-2.278h2.279Zm4.068-4.068v-.244h-4.068v-4.074h-.242l.437-.441v.248h4.07v4.066h.248Zm2.235-2.233v-2.278h2.278Zm4.068-4.068v-.246h-4.068v-4.072h-.242l.435-.437v.24h4.07v4.072h.25Zm2.226-2.229v-2.286h2.285Zm4.076-4.074v-.24h-4.076v-4.072h-.24l.436-.439v.246h4.07v4.068h.25Zm2.227-2.231v-2.274h2.278Zm4.068-4.066v-.246h-4.068v-4.068h-.242l.437-.442v.244h4.069v4.07h.249Zm2.038-10.617h-.046l.046-.044Zm.2,8.385v-2.28h2.277Zm3.87-4.314h-3.87v-3.87h3.87Zm0-5.906h-2.277l2.277-2.278Zm.2,6.154v-.05h.047Zm1.834-1.84v-2.278h2.278Zm4.068-4.066v-.248h-4.068v-4.068h-.242l1.564-1.56,4.31,4.312Z" transform="translate(-1096.15 -69.651)" fill="#022540"/>
                  </g>
                </g>
              </g>
              <g id="Grupo_266" data-name="Grupo 266" transform="translate(90.03 31.151)">
                <path id="Caminho_1137" data-name="Caminho 1137" d="M177.555,256.716l-2.35-11.522-.992-4.828L168.1,210.224l-.99-4.873-.04-.167-1.487-7.309-3.016-14.783-.941-4.828h.406v-8.257L156,165.878h-4.128l-6.358,4.13v8.257h.4l-.938,4.828-3.016,14.783-1.489,7.309-.04.167-.992,4.873-6.11,30.142-.988,4.828-2.358,11.522-1.646,8.257h4.211l1.69-8.257,1.612-8.013.9-4.376h34.027l.908,4.376,1.608,8.013L175,264.973h4.215Zm-8.961-23.209L156.7,221.619l7.892-7.891Zm-3.3,2.563H142.254l11.52-11.518ZM145.763,199.9l8.009-8.008,8.014,8.008.617,3.138H145.147Zm14.534-7.307L156.7,189l2.4-2.392Zm-2.891-14.328.7,3.466-4.336,4.336-4.333-4.336.7-3.466Zm-8.961,8.341,2.4,2.392-3.591,3.591Zm-4.5,22.255.328-1.694h18.992l.332,1.694-9.828,9.828-9.824-9.826Zm-.992,4.867,7.887,7.891-11.892,11.89Z" transform="translate(-77.225 -99.81)" fill="#023e9f"/>
                <rect id="Retângulo_1784" data-name="Retângulo 1784" width="156.9" height="8.257" transform="translate(0 156.905)" fill="#023e9f"/>
                <path id="Caminho_1138" data-name="Caminho 1138" d="M152.511,106.221,62.1,146l-6.064-4.13,1.07-7.205,90.407-39.779Z" transform="translate(-33.72 -57.092)" fill="#023e9f"/>
                <path id="Caminho_1139" data-name="Caminho 1139" d="M67.252,148.137l.352-2.388,84.545-37.2,1.664,3.781L69.284,149.521Z" transform="translate(-40.467 -65.315)" fill="#0045b5"/>
                <rect id="Retângulo_1785" data-name="Retângulo 1785" width="4.129" height="90.84" transform="translate(148.641 70.197)" fill="#023e9f"/>
                <path id="Caminho_1140" data-name="Caminho 1140" d="M375.219,286.106a6.194,6.194,0,1,1-6.193-6.2,6.19,6.19,0,0,1,6.193,6.2" transform="translate(-218.319 -168.426)" fill="#002f7c"/>
                <path id="Caminho_1141" data-name="Caminho 1141" d="M312.018,57c-.23-1.344-.519-2.706-.895-4.076a88.635,88.635,0,0,0-5.184-15.451c-.564-1.281-1.151-2.511-1.738-3.744a91.083,91.083,0,0,0-7.923-13.065c-.8-1.1-1.648-2.207-2.507-3.227-10.12-12.643-21.446-19.3-26.7-16.982l.2,1.36,4.123,32.206.6,4.74.638,5.04,2.1,2.917,2.491,3.408,4.718,6.5,2.8,3.816L306.212,90.01l.815,1.131c3.774-1.664,6.267-8.808,6.436-18.674A73.941,73.941,0,0,0,312.018,57M281.569,22.411a3.227,3.227,0,1,1,3.227-3.229,3.23,3.23,0,0,1-3.227,3.229m3.249,4.295a3.226,3.226,0,1,1,3.227,3.231,3.226,3.226,0,0,1-3.227-3.231m4.853,7.287a3.228,3.228,0,1,1,3.231,3.225,3.229,3.229,0,0,1-3.231-3.225m4.38,8.619a3.229,3.229,0,1,1,3.231,3.225,3.231,3.231,0,0,1-3.231-3.225m3.006,8.858a3.228,3.228,0,1,1,3.231,3.229,3.23,3.23,0,0,1-3.231-3.229m5.223,12.373a3.227,3.227,0,1,1,3.225-3.225,3.232,3.232,0,0,1-3.225,3.225" transform="translate(-160.701 0)" fill="#023e9f"/>
                <path id="Caminho_1142" data-name="Caminho 1142" d="M317.914,75.894a3.495,3.495,0,1,1-.006-.073c-.167-1.122-.268-2.225-.495-3.354a35.468,35.468,0,0,0-.762-3.479c-.264-1.114-.628-2.215-.946-3.321a3.148,3.148,0,0,1,.221,1.073,3.268,3.268,0,1,1-.284-1.29,77.537,77.537,0,0,0-2.863-8.255,2.933,2.933,0,0,1,.143.688,3.229,3.229,0,1,1-3.227-3.227,3.19,3.19,0,0,1,2.726,1.6c-.109-.259-.191-.527-.3-.783-.509-1.151-1.03-2.253-1.521-3.273-.708-1.43-1.511-2.806-2.31-4.191a3.268,3.268,0,0,1,.253,1.251,3.223,3.223,0,1,1-.261-1.273,82.694,82.694,0,0,0-4.621-7.236c-.67-.916-1.384-1.853-2.2-2.821-5.368-6.7-10.3-10.575-13.759-12.556l4.02,31.5,7.846,10.8,2.667,3.622L318,93.017a39.087,39.087,0,0,0,.694-7.088,62.967,62.967,0,0,0-.779-10.035M293.981,37.682a3.227,3.227,0,1,1,3.227-3.229,3.23,3.23,0,0,1-3.227,3.229m3.249,4.295a3.226,3.226,0,1,1,3.227,3.231,3.226,3.226,0,0,1-3.227-3.231" transform="translate(-173.111 -15.27)" fill="#032540"/>
                <path id="Caminho_1143" data-name="Caminho 1143" d="M64.129,354.412H31.1l4.129-33.037H60Z" transform="translate(-18.714 -193.375)" fill="#023e9f"/>
                <path id="Caminho_1144" data-name="Caminho 1144" d="M80.3,355.057a5.162,5.162,0,1,1-5.159-5.163,5.16,5.16,0,0,1,5.159,5.163" transform="translate(-42.104 -210.535)" fill="#f2f1ef"/>
                <path id="Caminho_1145" data-name="Caminho 1145" d="M72.012,267.7a3.1,3.1,0,0,1-3.082-2.893L64.8,202.874a3.1,3.1,0,0,1,6.179-.413L75.11,264.4a3.1,3.1,0,0,1-2.885,3.3c-.07,0-.141.006-.213.006" transform="translate(-38.987 -120.084)" fill="#023e9f"/>
                <path id="Caminho_1146" data-name="Caminho 1146" d="M216.229,256.717l-2.35-11.522-.992-4.827-6.114-30.142-.99-4.873-.04-.167-1.487-7.309-3.016-14.783-.941-4.827h.406v-8.257l-6.031-4.129h-2.062v12.387h3.468l.7,3.466-4.169,4.173v6.15l7.848,7.846.617,3.137h-8.464v4.13h9.329l.332,1.694-9.661,9.661v6.194l11.355,11.355H192.612v8.257h16.847l.908,4.376,1.608,8.013H192.612v8.257H272.8v-8.257ZM195.376,189l2.4-2.392,1.2,5.987Zm0,32.621,7.891-7.891,4,19.781Z" transform="translate(-115.897 -99.811)" fill="#003765"/>
                <g id="Grupo_262" data-name="Grupo 262" transform="translate(28.904 128)" opacity="0.1">
                  <g id="Grupo_261" data-name="Grupo 261" transform="translate(0 0)">
                    <g id="Grupo_260" data-name="Grupo 260" clip-path="url(#clip-path-4)">
                      <path id="Caminho_1147" data-name="Caminho 1147" d="M72.569,354.412H89.081l-4.127-33.037H72.569Z" transform="translate(-72.569 -321.375)"/>
                    </g>
                  </g>
                </g>
              </g>
              <g id="Grupo_4" data-name="Grupo 4" transform="translate(13.767 98.564)">
                <g id="Grupo_3" data-name="Grupo 3" clip-path="url(#clip-path-5)">
                  <path id="Caminho_1" data-name="Caminho 1" d="M15.974.179C15.527.125,11.931,0,10.214,0c-3.488,0-6.082.018-8.1,2.129C0,4.329,0,7.227,0,11.913v2.594a.6.6,0,0,0,.644.662c.25,0,.447-.072.8-.429L9,7.441a.631.631,0,0,1,.411-.2.466.466,0,0,1,.465.483v6.9a.489.489,0,0,0,.5.537h.233a5.98,5.98,0,0,0,4.168-1.95c1.807-1.9,1.9-3.971,1.9-7.907V.894a.713.713,0,0,0-.7-.716M13.953,2.665,10.482,6.01a.609.609,0,0,1-.429.215.452.452,0,0,1-.429-.376L8.658,2.558a.9.9,0,0,1-.036-.215.409.409,0,0,1,.447-.429h4.722a.363.363,0,0,1,.376.358.622.622,0,0,1-.215.394" fill="#f5d24b"/>
                </g>
              </g>
            </g>
          </g>
        </g>
      </g>
    </g>
    <text id="Concluiu_com_sucesso_o_curso_de_Extração_de_Petróleo_" data-name="Concluiu com sucesso, o curso 
de Extração de Petróleo!​" transform="translate(352 559)" fill="#033990" font-size="25" font-family="IpirangaTitulos-Regular, Ipiranga Titulos"><tspan x="-163.354" y="0">Concluiu com sucesso, o curso </tspan><tspan x="-133.044" y="30">de Extração de Petróleo!​</tspan></text>
  </g>
</svg>
